<?xml version="1.0" encoding="utf-8"?>
<!-- Generator: Adobe Illustrator 23.0.3, SVG Export Plug-In . SVG Version: 6.00 Build 0)  -->
<svg version="1.1" id="Layer_1" xmlns="http://www.w3.org/2000/svg" xmlns:xlink="http://www.w3.org/1999/xlink" x="0px" y="0px"
	 viewBox="0 0 110.2 160.9" style="enable-background:new 0 0 110.2 160.9;" xml:space="preserve">
<style type="text/css">
	.st0{fill:#FFFFFF;}
</style>
<path class="st0" d="M28.4,16.1c0,0-16.4,19.2-16.4,25.4c0,22.7,0,69.7,0,92.5c0,6.1,15.4,14.4,15.4,14.4h55.4
	c0,0,15.4-8.2,15.4-14.4c0-23,0-68.3,0-92.5c0-6.1-16.4-25.4-16.4-25.4H28.4z"/>
<g>
	<path class="st0" d="M23.9,8.4c0,2.6,2.1,4.6,4.6,4.6h53.1c2.6,0,4.6-2.1,4.6-4.6s-2.1-4.6-4.6-4.6H28.5
		C25.9,3.8,23.9,5.9,23.9,8.4C23.9,8.4,23.9,5.9,23.9,8.4z"/>
</g>
<g>
	<path class="st0" d="M32.6,155.8h45c2.5,0,4.5-2,4.5-4.5h-54C28.1,153.8,30.1,155.8,32.6,155.8z"/>
</g>
</svg>
